<svg width="22" height="19" viewBox="0 0 22 19" fill="none" xmlns="http://www.w3.org/2000/svg">
<path d="M20.7207 7.66282H6.23904L10.792 3.12387C11.0164 2.90064 11.1352 2.603 11.1352 2.28786C11.1352 1.97271 11.012 1.67508 10.792 1.45185L10.0838 0.747151C9.85945 0.523923 9.56471 0.401367 9.24798 0.401367C8.93125 0.401367 8.63212 0.523923 8.41217 0.742774L0.603867 8.50759C0.383915 8.73081 0.260742 9.02845 0.260742 9.3436C0.260742 9.65874 0.383915 9.95638 0.603867 10.1796L8.40777 17.9444C8.63212 18.1676 8.92685 18.2858 9.24358 18.2858C9.56032 18.2858 9.85505 18.1633 10.0794 17.9444L10.7876 17.2397C11.012 17.0165 11.1308 16.7232 11.1308 16.4081C11.1308 16.0929 11.0076 15.8128 10.7876 15.5896L6.18625 11.0244H20.7031C21.3541 11.0244 21.904 10.4641 21.904 9.81631V8.81835C21.904 8.17056 21.3409 7.65407 20.6855 7.65407" fill="white"/>
</svg>
