<svg width="164" height="360" viewBox="0 0 164 360" fill="none" xmlns="http://www.w3.org/2000/svg">
<path d="M82.3438 113.389C113.609 113.389 138.955 88.1435 138.955 57.0016C138.955 25.8597 113.609 0.614258 82.3438 0.614258C51.0782 0.614258 25.7324 25.8597 25.7324 57.0016C25.7324 88.1435 51.0782 113.389 82.3438 113.389Z" fill="#09AA82"/>
<path d="M163.658 217.439C163.658 254.511 155.362 328.44 155.362 344.064C155.362 352.553 148.445 359.443 139.923 359.443H30.2716C13.5764 359.443 0 345.971 0 329.404V217.439C0 179.29 31.3524 148.246 69.8893 148.246H93.7689C132.306 148.246 163.658 179.29 163.658 217.439Z" fill="#09AA82"/>
</svg>
