<svg width="164" height="360" viewBox="0 0 164 360" fill="none" xmlns="http://www.w3.org/2000/svg">
<path d="M81.3145 113.389C112.58 113.389 137.926 88.1435 137.926 57.0016C137.926 25.8597 112.58 0.614258 81.3145 0.614258C50.0489 0.614258 24.7031 25.8597 24.7031 57.0016C24.7031 88.1435 50.0489 113.389 81.3145 113.389Z" fill="#015F48"/>
<path d="M163.658 217.439V328.337C163.658 345.489 149.598 359.443 132.306 359.443H23.7356C15.213 359.443 8.29613 352.553 8.29613 344.064C8.29613 329.117 0 253.363 0 217.439C0 179.29 31.3524 148.246 69.8893 148.246H93.769C132.306 148.246 163.658 179.29 163.658 217.439Z" fill="#015F48"/>
</svg>
