<svg width="192" height="32" viewBox="0 0 192 32" fill="none" xmlns="http://www.w3.org/2000/svg">
<g clip-path="url(#clip0_1135_700)">
<path d="M31.616 16.3187C31.616 7.64938 24.576 0.637424 15.872 0.637424C7.04 0.509934 0 7.64938 0 16.3187C0 24.988 7.04 32 15.744 32C24.576 32 31.616 24.988 31.616 16.3187Z" fill="#EF4430"/>
<path d="M130.176 9.05176H121.984V30.98H130.176V9.05176Z" fill="black"/>
<path d="M87.9364 30.9801L84.8644 20.6534L80.6404 30.9801H64.3844V16.4462H59.1364V30.9801H50.8164V9.05179H72.5764V24.0956H74.7524L80.8964 10.4542L76.9284 0H85.7604C85.7604 0 94.0804 23.3307 96.6404 30.9801H87.9364Z" fill="black"/>
<path d="M179.969 8.54199C173.313 8.54199 167.809 13.3866 167.809 20.0161C167.809 26.6456 173.313 31.4902 179.969 31.4902C186.369 31.4902 192.001 26.6456 192.001 20.0161C192.001 13.3866 186.369 8.54199 179.969 8.54199ZM179.969 23.9683C177.537 23.9683 176.001 22.1834 176.001 20.0161C176.001 17.5938 177.537 16.0639 179.969 16.0639C182.273 16.0639 183.809 17.5938 183.809 20.0161C183.809 22.3109 182.273 23.9683 179.969 23.9683Z" fill="black"/>
<path d="M107.775 15.9364C110.079 15.9364 111.743 17.5938 111.871 20.0161V20.1436C111.871 22.5659 109.951 24.4782 107.775 24.4782C105.343 24.4782 103.423 22.5659 103.423 20.1436C103.423 17.7213 105.343 15.9364 107.775 15.9364ZM107.007 8.54199C100.607 8.54199 95.6152 13.3866 95.6152 19.8886C95.6152 26.3906 100.607 31.3627 107.007 31.3627C108.927 31.3627 110.847 30.8527 112.383 29.8328L112.895 30.8527H119.423V9.05195H112.895L112.383 10.0719C110.847 9.05195 108.927 8.54199 107.007 8.54199Z" fill="black"/>
<path d="M144 16.1912C146.432 16.1912 148.096 17.8486 148.096 20.2709C148.096 22.6932 146.432 24.3506 144 24.3506C141.44 24.3506 139.648 22.6932 139.648 20.2709C139.648 17.8486 141.568 16.1912 144 16.1912ZM166.016 9.05176H144C137.088 9.05176 132.096 13.8964 132.096 20.2709C132.096 26.7729 137.472 31.49 144 31.49C150.528 31.49 155.392 27.0279 155.392 21.1633C155.392 19.251 154.88 17.5936 153.856 16.0637H157.696V30.98H166.016V9.05176Z" fill="black"/>
</g>
<defs>
<clipPath id="clip0_1135_700">
<rect width="192" height="32" fill="white"/>
</clipPath>
</defs>
</svg>
