<svg width="40" height="20" viewBox="0 0 40 20" fill="none" xmlns="http://www.w3.org/2000/svg">
<path d="M39.735 9.36177L30.6446 0.316197C30.318 -0.0631639 29.7438 -0.107474 29.3626 0.21747C28.9813 0.542414 28.9368 1.11379 29.2633 1.49315C29.2938 1.52891 29.3266 1.56156 29.3626 1.59187L36.8983 9.09979H0.909353C0.407021 9.09979 0 9.50481 0 10.0047C0 10.5045 0.407021 10.9095 0.909353 10.9095H36.8991L29.3633 18.4081C28.9821 18.7331 28.9376 19.3044 29.2641 19.6838C29.5907 20.0632 30.1649 20.1075 30.5461 19.7825C30.5813 19.7522 30.6149 19.7196 30.6453 19.6838L39.7357 10.6382C40.0881 10.2853 40.0881 9.71548 39.7357 9.36255L39.735 9.36177Z" fill="white"/>
</svg>
