<svg width="331" height="527" viewBox="0 0 331 527" fill="none" xmlns="http://www.w3.org/2000/svg">
<path d="M310.538 174.628C303.09 138.392 270.974 112.563 233.999 113.091H224.808H219.79C219.79 100.995 210.018 91.2229 197.975 91.2229H170.455V76.3272C170.455 72.5241 167.391 69.4604 163.588 69.4604H162.109C158.306 69.4604 155.242 72.5241 155.242 76.3272V91.2229H127.458C115.415 91.2229 105.696 100.995 105.643 113.038L96.452 113.091C59.5826 112.563 27.4672 138.34 20.0722 174.47C8.92683 174.734 0.0528215 183.819 0 194.964V263.685C0 274.989 9.19094 284.127 20.4947 284.18H24.9317C25.8297 284.18 26.6748 284.127 27.5728 283.968C45.7962 339.959 79.602 389.559 125.081 426.956C124.817 427.326 124.5 427.696 124.236 428.013L70.2526 509.886H56.9416C47.3281 509.728 39.352 517.387 39.1407 527H181.547C181.336 517.387 173.36 509.728 163.747 509.886H153.288L182.128 466.097C206.532 479.566 232.467 490.131 259.354 497.526L304.305 509.886V284.391C304.78 284.391 305.255 284.497 305.731 284.497H310.168C321.472 284.497 330.663 275.306 330.715 263.949V195.123C330.715 183.925 321.736 174.839 310.538 174.628ZM122.07 509.886H101.417L145.523 442.908C150.171 446.289 154.925 449.511 159.785 452.627L122.07 509.833V509.886Z" fill="#21459B"/>
<path d="M163.324 62.7519C181.44 62.7519 196.126 48.7044 196.126 31.376C196.126 14.0475 181.44 0 163.324 0C145.208 0 130.521 14.0475 130.521 31.376C130.521 48.7044 145.208 62.7519 163.324 62.7519Z" fill="#EB2B3E"/>
<path d="M165.439 326.12L188.997 303.459C189.684 302.826 189.737 301.716 189.05 301.03C189.05 301.03 189.05 301.03 188.997 300.977C175.052 287.771 153.184 287.771 139.239 300.977C138.553 301.611 138.5 302.72 139.187 303.407C139.187 303.407 139.187 303.407 139.239 303.459L162.798 326.12C163.537 326.807 164.647 326.807 165.386 326.12H165.439Z" fill="white"/>
<path d="M259.724 175.737H70.7815C53.6864 175.737 39.8281 189.596 39.8281 206.691V245.726C39.8281 262.821 53.6864 276.679 70.7815 276.679H259.724C276.819 276.679 290.677 262.821 290.677 245.726V206.691C290.677 189.596 276.819 175.737 259.724 175.737Z" fill="white"/>
<path d="M183.505 226.235C184.35 246.571 201.517 262.365 221.853 261.519C241.027 260.727 256.346 245.356 257.138 226.235C257.138 220.319 255.606 214.508 252.701 209.385C246.046 197.817 233.632 190.739 220.321 190.844C200.408 190.474 183.927 206.321 183.505 226.235ZM204.898 226.235H220.269V211.392H220.321C228.509 211.709 234.9 218.628 234.583 226.868C234.266 235.056 227.347 241.447 219.107 241.13C211.131 240.813 204.845 234.263 204.845 226.287L204.898 226.235Z" fill="#21459B"/>
<path d="M73.2656 226.235C74.0579 246.571 91.2249 262.417 111.561 261.625C130.788 260.886 146.159 245.462 146.952 226.235C146.952 220.319 145.42 214.508 142.515 209.385C135.859 197.817 123.499 190.739 110.135 190.844C90.2213 190.474 73.741 206.321 73.3184 226.235H73.2656ZM94.6583 226.235H110.082V211.392H110.135C118.322 211.709 124.714 218.628 124.397 226.868C124.08 235.056 117.16 241.447 108.92 241.13C100.944 240.813 94.6583 234.263 94.6583 226.287V226.235Z" fill="#21459B"/>
</svg>
