<svg width="61" height="60" viewBox="0 0 61 60" fill="none" xmlns="http://www.w3.org/2000/svg">
<g clip-path="url(#clip0_2266_725)">
<path d="M29.6697 22.0138C30.2357 22.2351 30.7897 21.6932 30.6033 21.1151C29.3169 17.1488 24.6572 15.6706 20.3261 19.1889C18.0471 21.04 17.1914 21.433 17.1699 21.4424C18.6722 22.9446 20.3878 27.984 24.1327 28.5406C28.2586 29.2891 31.9097 25.2302 28.9226 23.3725C26.9575 22.1519 24.6451 21.4424 22.1663 21.4424C24.7658 20.8562 27.3599 21.107 29.6724 22.0138H29.6697Z" fill="white"/>
<path d="M48.3488 19.1876C40.8723 13.1141 36.1039 22.6925 39.0682 21.7428C41.1727 21.0681 43.4744 20.9219 45.7828 21.4424C41.8716 21.4424 38.2661 23.2344 35.8624 26.1517C36.0596 21.5671 36.3587 18.6967 36.7048 16.5626C38.702 16.4942 41.3659 14.8806 42.8279 12.0571C45.3496 7.54493 44.18 2.92006 43.8031 0C41.8327 1.91809 33.2281 -0.329966 29.8171 5.51551C28.3108 8.09756 28.7481 11.2403 30.3335 13.5393C30.8352 14.2676 32.0356 13.9176 32.0692 13.035C32.2181 9.19208 34.1308 6.28812 37.696 4.68121C36.0958 6.75355 35.0456 9.07538 34.5023 11.4737C33.6586 15.2106 32.7774 17.6612 32.4541 29.5721C32.4219 30.7806 33.3998 31.7799 34.6083 31.7652C35.4828 31.7544 36.2326 31.1991 36.568 30.3917C37.079 29.163 37.912 27.8928 39.2667 26.7285C40.5544 28.1517 42.514 28.9095 44.5408 28.542C48.2697 27.9867 50.0094 22.9366 51.5036 21.4437C51.4821 21.4343 50.625 21.0413 48.3475 19.1903L48.3488 19.1876Z" fill="white"/>
<path d="M59.3414 34.0281C57.0035 32.4426 54.4603 33.572 53.292 34.2467L38.6314 44.9773H30.0469L27.9008 42.8325H35.7851C38.1566 42.8325 40.8111 41.2886 40.8111 38.5389C40.8111 35.6202 38.1552 34.2454 35.7851 34.2454H32.8302C30.6358 34.2454 28.0712 34.4412 26.2631 33.4728C24.5448 32.5982 22.5664 32.1006 20.4552 32.1006C16.9087 32.1006 13.7351 33.5143 11.5595 35.7436L0 47.1234L12.8767 60.0001L17.1689 53.5617H37.4524C39.6159 53.5617 41.703 52.7677 43.3207 51.3311L59.4876 36.9696C60.3863 36.1715 60.3353 34.7027 59.3414 34.0281Z" fill="white"/>
</g>
<defs>
<clipPath id="clip0_2266_725">
<rect width="60.1261" height="60" fill="white"/>
</clipPath>
</defs>
</svg>
