<svg width="29" height="30" viewBox="0 0 29 30" fill="none" xmlns="http://www.w3.org/2000/svg">
<path d="M28.8391 8.11891L21.196 0.176957C21.087 0.0638684 20.937 0 20.7799 0H9.38906C8.11404 0 7.0769 1.03654 7.0769 2.31098V10.3848H2.4602C1.50627 10.3848 0.730469 11.1606 0.730469 12.1139V20.7707C0.730469 21.7241 1.50627 22.4999 2.4602 22.4999H7.0769V27.6931C7.0769 28.9652 8.11404 30 9.38906 30H26.6881C27.9631 30 29.0003 28.9658 29.0003 27.6943V8.51853C29.0003 8.36911 28.9422 8.22614 28.8391 8.11832V8.11891ZM20.9235 1.55745L27.1979 8.07672H20.9235V1.55745ZM2.4602 21.3467C2.14261 21.3467 1.88421 21.0889 1.88421 20.7713V12.1139C1.88421 11.7969 2.14261 11.5385 2.4602 11.5385H18.0395C18.357 11.5385 18.6154 11.7969 18.6154 12.1139V20.7707C18.6154 21.0883 18.357 21.3461 18.0395 21.3461H2.4602V21.3467ZM27.8465 27.6949C27.8465 28.33 27.3268 28.8469 26.6881 28.8469H9.38906C8.75038 28.8469 8.23064 28.3295 8.23064 27.6937V22.5004H18.0395C18.9934 22.5004 19.7692 21.7246 19.7692 20.7713V12.1139C19.7692 11.1606 18.9934 10.3848 18.0395 10.3848H8.23064V2.31098C8.23064 1.67288 8.75038 1.15373 9.38906 1.15373H19.7698V8.65388C19.7698 8.97264 20.0282 9.23104 20.3469 9.23104H27.8471V27.6949H27.8465Z" fill="white"/>
<path d="M7.62781 14.6421C7.43621 14.393 7.19831 14.2313 6.91471 14.1569C6.73014 14.1071 6.33345 14.0825 5.72465 14.0825H4.11914V19.0384H5.11994V17.1693H5.77269C6.22563 17.1693 6.57193 17.1458 6.81041 17.0984C6.9862 17.0603 7.15905 16.9818 7.32957 16.8634C7.49949 16.745 7.64012 16.5821 7.75028 16.3747C7.86044 16.1673 7.9161 15.9118 7.9161 15.6071C7.9161 15.2128 7.82001 14.8911 7.62899 14.6421H7.62781ZM6.77115 16.0062C6.69557 16.1169 6.59127 16.1978 6.45826 16.2493C6.32525 16.3009 6.06157 16.3273 5.66722 16.3273H5.11936V14.921H5.60277C5.96313 14.921 6.20337 14.9321 6.3229 14.955C6.48521 14.9843 6.61939 15.0575 6.72486 15.1747C6.83092 15.2919 6.88366 15.4407 6.88366 15.6206C6.88366 15.7671 6.84616 15.8954 6.77057 16.0062H6.77115Z" fill="white"/>
<path d="M12.7251 15.4366C12.6167 15.1202 12.4591 14.8524 12.2516 14.6339C12.0442 14.4153 11.7952 14.263 11.5046 14.1774C11.2883 14.1141 10.9737 14.0825 10.5612 14.0825H8.73242V19.0384H10.6151C10.9848 19.0384 11.2801 19.0033 11.501 18.9336C11.7964 18.8392 12.0307 18.7074 12.2042 18.538C12.4339 18.3148 12.6108 18.023 12.7351 17.6626C12.8364 17.3673 12.8874 17.0157 12.8874 16.6079C12.8874 16.1439 12.8335 15.753 12.7251 15.4366V15.4366ZM11.7512 17.4716C11.6839 17.6937 11.5965 17.8531 11.4893 17.9498C11.3821 18.0464 11.2479 18.1156 11.0856 18.156C10.9614 18.1876 10.7598 18.2035 10.4803 18.2035H9.73323V14.921H10.1827C10.5905 14.921 10.8641 14.9368 11.0042 14.9684C11.1911 15.0089 11.3458 15.0868 11.4671 15.2017C11.5889 15.3165 11.6833 15.4765 11.7512 15.6815C11.8186 15.8866 11.8526 16.1808 11.8526 16.564C11.8526 16.9472 11.8186 17.2495 11.7512 17.4716Z" fill="white"/>
<path d="M17.1415 14.921V14.0831H13.7441V19.0384H14.7444V16.9325H16.8134V16.094H14.7444V14.921H17.1415Z" fill="white"/>
</svg>
