<svg width="72" height="60" viewBox="0 0 72 60" fill="none" xmlns="http://www.w3.org/2000/svg">
<path id="Vector" d="M43.0288 10.2966C46.3216 12.3613 48.6354 15.8588 49.0626 19.9258C50.4064 20.5577 51.9015 20.9137 53.4856 20.9137C59.2614 20.9137 63.9425 16.2326 63.9425 10.4568C63.9425 4.6811 59.2614 0 53.4856 0C47.7633 0 43.1267 4.60101 43.0377 10.2966H43.0288ZM36.1762 31.7087C41.9519 31.7087 46.6331 27.0276 46.6331 21.2519C46.6331 15.4761 41.9519 10.795 36.1762 10.795C30.4005 10.795 25.7194 15.4761 25.7194 21.2519C25.7194 27.0276 30.4005 31.7087 36.1762 31.7087ZM40.617 32.4206H31.7443C24.3578 32.4206 18.3506 38.4278 18.3506 45.8143V56.6627L18.3773 56.8318L19.1249 57.0632C26.1732 59.2614 32.2961 60 37.3331 60C47.1759 60 52.8805 57.1967 53.2275 57.0187L53.9217 56.6627H53.9929V45.8054C53.9929 38.4189 47.9858 32.4117 40.6081 32.4117L40.617 32.4206ZM57.9175 21.6256H49.1071C49.0092 25.1498 47.5052 28.318 45.129 30.6052C51.6968 32.5541 56.4936 38.6414 56.4936 45.8321V49.1783C65.1884 48.8579 70.1988 46.3928 70.528 46.2326L71.2311 45.8766H71.3023V35.0193C71.3023 27.6327 65.2952 21.6256 57.9086 21.6256H57.9175ZM17.8256 20.9137C19.8724 20.9137 21.7769 20.3174 23.3877 19.3029C23.9039 15.9567 25.6927 13.0377 28.2557 11.0442C28.2646 10.8484 28.2824 10.6526 28.2824 10.4568C28.2824 4.6811 23.6013 0 17.8256 0C12.0498 0 7.36873 4.6811 7.36873 10.4568C7.36873 16.2326 12.0498 20.9137 17.8256 20.9137V20.9137ZM27.2145 30.6052C24.8472 28.3358 23.3521 25.1765 23.2364 21.679C22.9072 21.6523 22.5868 21.6256 22.2575 21.6256H13.3937C6.00712 21.6256 0 27.6327 0 35.0193V45.8766L0.0266983 46.0457L0.774251 46.2771C6.42539 48.0392 11.4714 48.8579 15.8499 49.116V45.841C15.8499 38.6503 20.6556 32.563 27.2145 30.6141V30.6052Z" fill="black"/>
</svg>
