<svg width="51" height="60" viewBox="0 0 51 60" fill="none" xmlns="http://www.w3.org/2000/svg">
<path d="M25.1953 19.9211C30.6966 19.9211 35.1562 15.4616 35.1562 9.96054C35.1562 4.45949 30.6966 0 25.1953 0C19.694 0 15.2344 4.45949 15.2344 9.96054C15.2344 15.4616 19.694 19.9211 25.1953 19.9211Z" fill="white"/>
<path d="M32.5156 21.27C30.4062 22.6398 27.8926 23.4367 25.1961 23.4367C22.4996 23.4367 19.9859 22.6398 17.8766 21.27C15.5445 22.1606 13.3836 23.4754 11.5039 25.1628L25.1961 30.2966L38.8883 25.1616C37.0086 23.4742 34.8477 22.1606 32.5156 21.2688V21.27Z" fill="white"/>
<path d="M46.2891 36.3267H45.1172C44.1469 36.3267 43.3594 37.1141 43.3594 38.0844V42.7717C43.3594 43.742 44.1469 44.5295 45.1172 44.5295H46.2891C48.5543 44.5295 50.3906 42.6932 50.3906 40.4281C50.3906 38.1629 48.5543 36.3267 46.2891 36.3267Z" fill="white"/>
<path d="M5.44453 27.4536C4.97109 27.7817 4.6875 28.3219 4.6875 28.8985V32.8124H5.27344C8.18086 32.8124 10.5469 35.1783 10.5469 38.0856V42.7729C10.5469 45.6802 8.18086 48.0461 5.27344 48.0461H4.6875V51.7503C4.6875 52.4827 5.14219 53.1389 5.82773 53.3967L23.4375 60V33.3948L7.06289 27.252C6.52266 27.0493 5.91797 27.1243 5.44453 27.4536Z" fill="white"/>
<path d="M39.8438 42.7716V38.0843C39.8438 35.177 42.2098 32.8111 45.1172 32.8111H45.7031V28.8972C45.7031 28.3206 45.4207 27.7804 44.9461 27.4523C44.4727 27.1242 43.8668 27.048 43.3277 27.2508L26.9531 33.3911V59.9963L44.5629 53.3931C45.2484 53.1353 45.7031 52.4802 45.7031 51.7467V48.0425H45.1172C42.2098 48.0425 39.8438 45.6766 39.8438 42.7693V42.7716Z" fill="white"/>
<path d="M7.03125 42.7717V38.0844C7.03125 37.1141 6.24375 36.3267 5.27344 36.3267H4.10156C1.83633 36.3267 0 38.1629 0 40.4281C0 42.6932 1.83633 44.5295 4.10156 44.5295H5.27344C6.24375 44.5295 7.03125 43.742 7.03125 42.7717Z" fill="white"/>
</svg>
