<svg width="39" height="60" viewBox="0 0 39 60" fill="none" xmlns="http://www.w3.org/2000/svg">
<g id="Group 35">
<path id="Vector" d="M15.4797 41.2675C16.3363 41.9624 17.248 42.7031 18.2055 43.5023C18.5312 43.7742 18.932 43.9089 19.3316 43.9089C19.7312 43.9089 20.1309 43.773 20.4578 43.5023C21.4141 42.7042 22.3258 41.9648 23.1824 41.2687C28.0914 37.2843 31.6398 34.405 31.6398 30.0726C31.6398 25.9992 28.5496 22.8093 24.6062 22.8093C22.0984 22.8093 20.4145 24.0421 19.3305 25.357C18.2488 24.0421 16.5672 22.8093 14.057 22.8093C10.1148 22.8093 7.02344 25.998 7.02344 30.0726C7.02344 34.4039 10.5707 37.282 15.4785 41.2664L15.4797 41.2675Z" fill="black"/>
<path id="Vector_2" d="M31.6406 15.0469V6.15234C31.6406 4.71094 30.4453 3.51562 29.0039 3.51562C27.5625 3.51562 26.3672 4.71094 26.3672 6.15234V19.4707C27.0305 19.5809 27.6645 19.7555 28.2773 19.9816C28.6266 17.8676 29.8734 16.0641 31.6406 15.0469V15.0469Z" fill="black"/>
<path id="Vector_3" d="M22.8516 19.5258V2.63672C22.8516 1.19531 21.6563 0 20.2148 0C18.7734 0 17.5781 1.19531 17.5781 2.63672V19.9816C18.1781 20.2019 18.7852 20.4059 19.3336 20.741C20.4012 20.0894 21.6012 19.7379 22.8516 19.5269V19.5258Z" fill="black"/>
<path id="Vector_4" d="M35.1562 17.5781C33.2227 17.5781 31.6406 19.1602 31.6406 21.0937V22.0312C33.7934 23.9918 35.1562 26.8277 35.1562 30.0726C35.1562 36.0797 30.634 39.7488 25.3992 43.998C25.0523 44.2805 24.6586 44.6062 24.293 44.9039C24.0914 45.2098 23.8172 45.4523 23.4668 45.5812C23.209 45.7933 22.9758 45.9785 22.7109 46.2C21.7617 46.991 20.5641 47.4246 19.3324 47.4246C18.1008 47.4246 16.9031 46.9922 15.9598 46.2058C15.0082 45.4113 14.1094 44.6836 13.2645 43.9969C8.03086 39.7465 3.51094 36.0785 3.51094 30.0738C3.51094 27.8191 4.15781 25.7484 5.27344 24.0363V13.1836C5.27344 11.7422 4.07813 10.5469 2.63672 10.5469C1.19531 10.5469 0 11.7422 0 13.1836V38.6719H0.105469C0.5625 43.8398 2.98828 48.5156 7.03125 51.8203V58.2422C7.03125 59.2265 7.80469 60 8.78906 60H29.8828C30.8672 60 31.6406 59.2265 31.6406 58.2422V51.8203C36.1055 48.1289 38.6719 42.75 38.6719 36.9141V21.0937C38.6719 19.1602 37.0898 17.5781 35.1562 17.5781Z" fill="black"/>
<path id="Vector_5" d="M14.0625 19.2949V6.15234C14.0625 4.71094 12.8672 3.51562 11.4258 3.51562C9.98437 3.51562 8.78906 4.71094 8.78906 6.15234V20.7469C10.3371 19.8469 12.116 19.2949 14.059 19.2949C14.059 19.2949 14.0613 19.2949 14.0625 19.2949V19.2949Z" fill="black"/>
</g>
</svg>
