<svg width="526" height="257" viewBox="0 0 526 257" fill="none" xmlns="http://www.w3.org/2000/svg">
<g clip-path="url(#clip0_1265_717)">
<path d="M254.493 84.8286V255.026H144.283V171.346H194.732V84.8286H254.493Z" fill="#FFE800"/>
<path d="M84.5209 84.8286V255.02C37.8115 254.771 0 216.762 0 169.912C0 146.431 9.51178 125.147 24.8894 109.75C40.1615 94.4458 61.2313 84.9466 84.5209 84.8286Z" fill="#4EB051"/>
<path d="M254.493 84.8285H84.5215C84.6641 37.9658 122.668 0 169.52 0C192.983 0 214.226 9.52404 229.616 24.9214C244.938 40.263 254.425 61.4282 254.493 84.8285Z" fill="#304697"/>
<path d="M194.732 84.8286V171.346H144.283V255.026H84.5215V84.8286H194.732Z" fill="#9E75B2"/>
<path d="M284.715 85.8032H349.325V157.525H328.119V103.523H306.07V157.525H284.721V85.8032H284.715Z" fill="#00384F"/>
<path d="M377.544 77.9244C374.735 69.4869 369.818 69.2075 367.431 69.2075C364.201 69.2075 362.092 69.6297 359.283 70.1947L356.896 52.053C360.269 51.3515 366.024 50.6499 369.676 50.6499C382.598 50.6499 389.481 56.1321 395.235 71.8834L425.996 157.525H403.804L389.195 112.947H388.774L372.199 157.525H349.307L380.204 85.8032L377.538 77.9306L377.544 77.9244Z" fill="#00384F"/>
<path d="M421.645 121.664C421.645 96.2087 437.233 84.3937 453.665 84.3937C463.077 84.3937 469.538 87.9078 474.313 93.2534H474.592V84.2509H495.941V157.519H474.592V150.069H474.313C469.817 155.414 463.641 158.928 454.229 158.928C437.512 158.928 421.645 146.977 421.645 121.658V121.664ZM475.857 121.664C475.857 109.57 468.131 102.821 459.561 102.821C450.992 102.821 442.851 109.855 442.851 121.664C442.851 133.473 450.291 140.371 459.561 140.371C468.131 140.371 475.857 133.336 475.857 121.664ZM466.308 50.9292L484.848 59.0873L466.872 75.9624H451.842L466.308 50.9292Z" fill="#00384F"/>
<path d="M504.652 85.8032H526.001V157.525H504.652V85.8032Z" fill="#00384F"/>
<path d="M360.834 183.875V200.327H345.246V200.607C352.693 203.699 357.603 212.558 357.603 220.996C357.603 242.229 340.75 257 319.259 257C297.767 257 281.199 242.093 281.199 220.437C281.199 198.781 297.494 183.875 319.401 183.875H360.834ZM336.255 220.437C336.255 210.454 329.515 202.016 319.259 202.016C309.003 202.016 302.405 210.174 302.405 220.437C302.405 230.7 309.288 238.436 319.538 238.436C329.787 238.436 336.248 230.7 336.248 220.437H336.255Z" fill="#00384F"/>
<path d="M362.941 219.736C362.941 198.08 379.373 182.465 401.286 182.465C423.199 182.465 439.346 198.074 439.346 219.736C439.346 241.398 422.914 257.006 401.001 257.006C379.088 257.006 362.941 241.398 362.941 219.736ZM417.997 219.736C417.997 209.752 411.257 200.893 401.001 200.893C390.745 200.893 384.148 209.473 384.148 219.736C384.148 229.999 391.03 238.442 401.28 238.442C411.53 238.442 417.991 230.005 417.991 219.736H417.997Z" fill="#00384F"/>
<path d="M510.127 223.815C510.127 239.709 503.245 257.006 476.979 257.006C450.713 257.006 444.115 239.709 444.115 223.815V183.875H465.464V222.691C465.464 232.674 469.116 238.442 477.121 238.442C485.126 238.442 488.921 232.674 488.921 222.691V183.875H510.127V223.815Z" fill="#00384F"/>
</g>
<defs>
<clipPath id="clip0_1265_717">
<rect width="526" height="257" fill="white"/>
</clipPath>
</defs>
</svg>
