<svg width="70" height="69" viewBox="0 0 70 69" fill="none" xmlns="http://www.w3.org/2000/svg">
<g clip-path="url(#clip0_924_2257)">
<path fill-rule="evenodd" clip-rule="evenodd" d="M36.9713 14.6302C33.9475 13.7711 33.2052 10.8979 31.5953 8.08877C26.6167 20.331 22.3841 30.0874 24.7806 40.5109C26.0638 46.1236 29.4026 52.7601 36.5032 54.8979C42.167 56.5982 45.4671 54.236 48.8688 52.4412C52.7539 50.3979 49.9658 50.7077 52.9908 51.7664C55.4806 59.4189 41.2455 61.6374 38.2891 61.2131C31.7919 60.2783 25.4038 55.8551 21.6131 48.7666C15.2224 36.8134 19.6494 24.6531 25.3434 11.595C15.0286 12.9048 28.0255 2.45271 32.3142 1.57872C34.6901 3.75478 35.2291 5.45922 36.4381 8.16716C37.8317 11.3595 38.5848 12.0789 36.9721 14.6295L36.9713 14.6302Z" fill="#5FDB92"/>
</g>
<defs>
<clipPath id="clip0_924_2257">
<rect width="55.1446" height="42.084" fill="white" transform="matrix(-0.707107 -0.707107 -0.707107 0.707107 69.75 38.9932)"/>
</clipPath>
</defs>
</svg>
