<svg width="147" height="147" viewBox="0 0 147 147" fill="none" xmlns="http://www.w3.org/2000/svg">
<g clip-path="url(#clip0_924_2249)">
<path fill-rule="evenodd" clip-rule="evenodd" d="M84.714 10.0537C83.4327 16.0286 78.9429 12.1913 77.891 19.3962C74.8165 40.4357 123.018 48.7216 135.738 78.9718C145.663 102.54 122.673 106.748 103.656 108.671C79.1892 111.118 72.1561 112.986 52.7706 127.593C58.7025 128.098 56.0942 124.632 60.6432 128.23C60.7311 133.671 60.4674 130.446 50.9597 137.811C46.482 141.301 44.2252 145.297 39.5737 145.311C35.1421 140.831 39.2165 139.933 40.9595 128.426C42.9847 114.7 39.1515 114.162 47.12 112.866C50.589 118.097 48.8596 118.144 48.5668 123.54C64.6619 108.89 76.577 105.939 98.7494 103.086C116.125 100.848 143.52 99.0489 125.87 75.0458C111.132 54.9442 79.3664 47.1326 72.7532 28.5615C69.6626 19.8718 74.0537 7.54792 84.7163 10.0513L84.714 10.0537Z" fill="#5FDB92"/>
</g>
<defs>
<clipPath id="clip0_924_2249">
<rect width="113.917" height="113.917" fill="white" transform="matrix(-0.939693 0.34202 0.34202 0.939693 107.047 0)"/>
</clipPath>
</defs>
</svg>
