<svg width="174" height="174" viewBox="0 0 174 174" fill="none" xmlns="http://www.w3.org/2000/svg">
<g clip-path="url(#clip0_924_2251)">
<path fill-rule="evenodd" clip-rule="evenodd" d="M28.0843 38.4932C33.8296 42.9652 34.9887 36.0243 41.4667 41.7947C60.3859 58.643 22.7378 103.121 34.2956 140.472C43.2868 169.583 67.4917 155.818 86.3227 143.009C110.527 126.504 118.377 122.822 147.257 121.308C142.229 126.312 141.955 121.151 140.56 127.919C144.646 132.952 142.417 129.807 156.735 129.247C163.495 129.003 168.615 130.922 172.871 127.373C173.485 119.89 169.078 122.19 158.675 113.023C146.314 102.046 149.401 98.6191 141.136 103.539C141.976 110.971 143.59 109.689 147.99 114.39C122.08 113.345 108.945 119.777 86.523 134.153C68.9503 145.417 42.5685 164.757 40.2949 129.331C38.3522 99.697 61.362 68.2398 53.1753 46.2251C49.341 35.9271 35.895 28.0419 28.0804 38.4927L28.0843 38.4932Z" fill="black"/>
</g>
<defs>
<clipPath id="clip0_924_2251">
<rect width="135.726" height="135.726" fill="white" transform="translate(0 46.4211) rotate(-20)"/>
</clipPath>
</defs>
</svg>
