<svg width="917" height="299" viewBox="0 0 917 299" fill="none" xmlns="http://www.w3.org/2000/svg">
<g clip-path="url(#clip0_924_2067)">
<path d="M9.19531 3.06665H913.94" stroke="black" stroke-width="12" stroke-miterlimit="10"/>
<path d="M17.3691 220.544H903.211" stroke="black" stroke-width="12" stroke-miterlimit="10"/>
<path d="M6.64062 0.255615L20.0253 223.489" stroke="black" stroke-width="12" stroke-miterlimit="10"/>
<path d="M127.205 40.1223V223.611" stroke="black" stroke-width="2.5" stroke-miterlimit="10"/>
<path d="M52.1074 42.1667V215.945" stroke="black" stroke-width="4" stroke-miterlimit="10"/>
<path d="M95.5312 96.8555V157.167" stroke="black" stroke-width="2.5" stroke-miterlimit="10"/>
<path d="M157.348 96.8555V158.7" stroke="black" stroke-width="2.5" stroke-miterlimit="10"/>
<path d="M217.119 96.8555V158.7" stroke="black" stroke-width="2.5" stroke-miterlimit="10"/>
<path d="M277.4 96.8555V158.7" stroke="black" stroke-width="2.5" stroke-miterlimit="10"/>
<path d="M356.584 96.8555V158.7" stroke="black" stroke-width="2.5" stroke-miterlimit="10"/>
<path d="M367.824 40.1223V96.8557" stroke="black" stroke-width="2.5" stroke-miterlimit="10"/>
<path d="M429.639 40.1223V96.8557" stroke="black" stroke-width="2.5" stroke-miterlimit="10"/>
<path d="M429.639 155.633V217.478" stroke="black" stroke-width="2.5" stroke-miterlimit="10"/>
<path d="M492.475 155.633V217.478" stroke="black" stroke-width="2.5" stroke-miterlimit="10"/>
<path d="M552.758 155.633V217.478" stroke="black" stroke-width="2.5" stroke-miterlimit="10"/>
<path d="M492.475 42.1667V161.767" stroke="black" stroke-width="2.5" stroke-miterlimit="10"/>
<path d="M552.758 42.1667V77.9445" stroke="black" stroke-width="2.5" stroke-miterlimit="10"/>
<path d="M613.039 42.1667V77.9445" stroke="black" stroke-width="2.5" stroke-miterlimit="10"/>
<path d="M674.344 42.1667V77.9445" stroke="black" stroke-width="2.5" stroke-miterlimit="10"/>
<path d="M732.582 42.1667V96.8556" stroke="black" stroke-width="2.5" stroke-miterlimit="10"/>
<path d="M643.691 127.522V157.167" stroke="black" stroke-width="2.5" stroke-miterlimit="10"/>
<path d="M613.039 155.633V217.478" stroke="black" stroke-width="2.5" stroke-miterlimit="10"/>
<path d="M674.344 155.633V217.478" stroke="black" stroke-width="2.5" stroke-miterlimit="10"/>
<path d="M732.582 155.633V217.478" stroke="black" stroke-width="2.5" stroke-miterlimit="10"/>
<path d="M860.299 42.1667V213.389" stroke="black" stroke-width="4" stroke-miterlimit="10"/>
<path d="M796.441 42.1667V217.478" stroke="black" stroke-width="2.5" stroke-miterlimit="10"/>
<path d="M367.824 155.633V217.478" stroke="black" stroke-width="2.5" stroke-miterlimit="10"/>
<path d="M307.031 155.633V217.478" stroke="black" stroke-width="2.5" stroke-miterlimit="10"/>
<path d="M247.26 155.633V217.478" stroke="black" stroke-width="2.5" stroke-miterlimit="10"/>
<path d="M307.031 41.6555V96.8555" stroke="black" stroke-width="2.5" stroke-miterlimit="10"/>
<path d="M247.26 40.1223V96.8557" stroke="black" stroke-width="2.5" stroke-miterlimit="10"/>
<path d="M398.986 96.8555V158.7" stroke="black" stroke-width="2.5" stroke-miterlimit="10"/>
<path d="M492.985 96.8555H52.1074" stroke="black" stroke-width="7" stroke-miterlimit="10"/>
<path d="M860.298 157.167H52.1074" stroke="black" stroke-width="7" stroke-miterlimit="10"/>
<path d="M884.564 41.6555H31.1621" stroke="black" stroke-width="7" stroke-miterlimit="10"/>
<path d="M860.299 96.8555H732.582" stroke="black" stroke-width="7" stroke-miterlimit="10"/>
<path d="M36.2715 2.81104V223.611" stroke="black" stroke-width="12" stroke-miterlimit="10"/>
<path d="M884.311 2.30005V223.1" stroke="black" stroke-width="12" stroke-miterlimit="10"/>
<path d="M155.303 220.544V278.3" stroke="black" stroke-width="12" stroke-miterlimit="10"/>
<path d="M222.738 220.544V278.3" stroke="black" stroke-width="12" stroke-miterlimit="10"/>
<path d="M289.15 220.544V278.3" stroke="black" stroke-width="12" stroke-miterlimit="10"/>
<path d="M359.139 220.544V278.3" stroke="black" stroke-width="12" stroke-miterlimit="10"/>
<path d="M402.053 220.544V278.3" stroke="black" stroke-width="12" stroke-miterlimit="10"/>
<path d="M473.572 220.544V278.3" stroke="black" stroke-width="12" stroke-miterlimit="10"/>
<path d="M539.475 220.544V278.3" stroke="black" stroke-width="12" stroke-miterlimit="10"/>
<path d="M608.441 220.544V276.767" stroke="black" stroke-width="12" stroke-miterlimit="10"/>
<path d="M676.387 220.544V276.767" stroke="black" stroke-width="12" stroke-miterlimit="10"/>
<path d="M742.289 220.544V275.744" stroke="black" stroke-width="12" stroke-miterlimit="10"/>
<path d="M913.939 0.255615L903.104 223.529" stroke="black" stroke-width="12" stroke-miterlimit="10"/>
<path d="M913.939 2.81104H6.64062V18.1444H913.939V2.81104Z" fill="black"/>
<path d="M898.103 211.344H19.9238V223.611H898.103V211.344Z" fill="black"/>
<path d="M900.638 220.544H876.137V14.5667H911.897L900.638 220.544Z" fill="black"/>
<path d="M19.9232 219.011H34.2274V13.0334H6.64062L19.9232 219.011Z" fill="black"/>
<path d="M90.9344 222.078H43.4238V278.3H90.9344V222.078Z" fill="black"/>
<path d="M865.919 220.033H803.594V275.745H865.919V220.033Z" fill="black"/>
<path d="M204.857 6.8999H185.955V216.967H204.857V6.8999Z" fill="black"/>
<path d="M332.062 6.8999H313.16V216.967H332.062V6.8999Z" fill="black"/>
<path d="M464.377 6.8999H445.475V216.967H464.377V6.8999Z" fill="black"/>
<path d="M595.16 6.8999H576.258V77.9443H595.16V6.8999Z" fill="black"/>
<path d="M725.941 6.8999H707.039V77.9443H725.941V6.8999Z" fill="black"/>
<path d="M595.16 127.522H576.258V217.478H595.16V127.522Z" fill="black"/>
<path d="M36.2715 45.7444H52.1083" stroke="black" stroke-width="2.5" stroke-miterlimit="10"/>
<path d="M36.2715 49.7004H52.1083" stroke="black" stroke-width="2.5" stroke-miterlimit="10"/>
<path d="M36.2715 53.6614H52.1083" stroke="black" stroke-width="2.5" stroke-miterlimit="10"/>
<path d="M36.2715 57.6174H52.1083" stroke="black" stroke-width="2.5" stroke-miterlimit="10"/>
<path d="M36.2715 61.5786H52.1083" stroke="black" stroke-width="2.5" stroke-miterlimit="10"/>
<path d="M36.2715 65.5347H52.1083" stroke="black" stroke-width="2.5" stroke-miterlimit="10"/>
<path d="M36.2715 69.4907H52.1083" stroke="black" stroke-width="2.5" stroke-miterlimit="10"/>
<path d="M36.2715 73.4517H52.1083" stroke="black" stroke-width="2.5" stroke-miterlimit="10"/>
<path d="M36.2715 77.4077H52.1083" stroke="black" stroke-width="2.5" stroke-miterlimit="10"/>
<path d="M36.2715 81.3689H52.1083" stroke="black" stroke-width="2.5" stroke-miterlimit="10"/>
<path d="M36.2715 85.3247H52.1083" stroke="black" stroke-width="2.5" stroke-miterlimit="10"/>
<path d="M36.2715 89.2808H52.1083" stroke="black" stroke-width="2.5" stroke-miterlimit="10"/>
<path d="M36.2715 93.2419H52.1083" stroke="black" stroke-width="2.5" stroke-miterlimit="10"/>
<path d="M36.2715 97.198H52.1083" stroke="black" stroke-width="2.5" stroke-miterlimit="10"/>
<path d="M36.2715 101.154H52.1083" stroke="black" stroke-width="2.5" stroke-miterlimit="10"/>
<path d="M36.2715 105.115H52.1083" stroke="black" stroke-width="2.5" stroke-miterlimit="10"/>
<path d="M36.2715 109.071H52.1083" stroke="black" stroke-width="2.5" stroke-miterlimit="10"/>
<path d="M36.2715 113.032H52.1083" stroke="black" stroke-width="2.5" stroke-miterlimit="10"/>
<path d="M36.2715 116.988H52.1083" stroke="black" stroke-width="2.5" stroke-miterlimit="10"/>
<path d="M36.2715 120.944H52.1083" stroke="black" stroke-width="2.5" stroke-miterlimit="10"/>
<path d="M36.2715 124.905H52.1083" stroke="black" stroke-width="2.5" stroke-miterlimit="10"/>
<path d="M36.2715 128.861H52.1083" stroke="black" stroke-width="2.5" stroke-miterlimit="10"/>
<path d="M36.2715 132.822H52.1083" stroke="black" stroke-width="2.5" stroke-miterlimit="10"/>
<path d="M36.2715 136.778H52.1083" stroke="black" stroke-width="2.5" stroke-miterlimit="10"/>
<path d="M36.2715 140.734H52.1083" stroke="black" stroke-width="2.5" stroke-miterlimit="10"/>
<path d="M36.2715 144.696H52.1083" stroke="black" stroke-width="2.5" stroke-miterlimit="10"/>
<path d="M36.2715 148.651H52.1083" stroke="black" stroke-width="2.5" stroke-miterlimit="10"/>
<path d="M36.2715 152.613H52.1083" stroke="black" stroke-width="2.5" stroke-miterlimit="10"/>
<path d="M36.2715 156.569H52.1083" stroke="black" stroke-width="2.5" stroke-miterlimit="10"/>
<path d="M36.2715 160.525H52.1083" stroke="black" stroke-width="2.5" stroke-miterlimit="10"/>
<path d="M36.2715 164.486H52.1083" stroke="black" stroke-width="2.5" stroke-miterlimit="10"/>
<path d="M36.2715 168.442H52.1083" stroke="black" stroke-width="2.5" stroke-miterlimit="10"/>
<path d="M36.2715 172.398H52.1083" stroke="black" stroke-width="2.5" stroke-miterlimit="10"/>
<path d="M36.2715 176.359H52.1083" stroke="black" stroke-width="2.5" stroke-miterlimit="10"/>
<path d="M36.2715 180.315H52.1083" stroke="black" stroke-width="2.5" stroke-miterlimit="10"/>
<path d="M36.2715 184.276H52.1083" stroke="black" stroke-width="2.5" stroke-miterlimit="10"/>
<path d="M36.2715 188.232H52.1083" stroke="black" stroke-width="2.5" stroke-miterlimit="10"/>
<path d="M36.2715 192.188H52.1083" stroke="black" stroke-width="2.5" stroke-miterlimit="10"/>
<path d="M36.2715 196.149H52.1083" stroke="black" stroke-width="2.5" stroke-miterlimit="10"/>
<path d="M36.2715 200.105H52.1083" stroke="black" stroke-width="2.5" stroke-miterlimit="10"/>
<path d="M36.2715 204.066H52.1083" stroke="black" stroke-width="2.5" stroke-miterlimit="10"/>
<path d="M36.2715 208.022H52.1083" stroke="black" stroke-width="2.5" stroke-miterlimit="10"/>
<path d="M725.941 127.522H707.039V217.478H725.941V127.522Z" fill="black"/>
<path d="M860.258 46.2861H876.095" stroke="black" stroke-width="2.5" stroke-miterlimit="10"/>
<path d="M860.258 50.2473H876.095" stroke="black" stroke-width="2.5" stroke-miterlimit="10"/>
<path d="M860.258 54.2031H876.095" stroke="black" stroke-width="2.5" stroke-miterlimit="10"/>
<path d="M860.258 58.1592H876.095" stroke="black" stroke-width="2.5" stroke-miterlimit="10"/>
<path d="M860.258 62.1204H876.095" stroke="black" stroke-width="2.5" stroke-miterlimit="10"/>
<path d="M860.258 66.0764H876.095" stroke="black" stroke-width="2.5" stroke-miterlimit="10"/>
<path d="M860.258 70.0325H876.095" stroke="black" stroke-width="2.5" stroke-miterlimit="10"/>
<path d="M860.258 73.9934H876.095" stroke="black" stroke-width="2.5" stroke-miterlimit="10"/>
<path d="M860.258 77.9495H876.095" stroke="black" stroke-width="2.5" stroke-miterlimit="10"/>
<path d="M860.258 81.9106H876.095" stroke="black" stroke-width="2.5" stroke-miterlimit="10"/>
<path d="M860.258 85.8667H876.095" stroke="black" stroke-width="2.5" stroke-miterlimit="10"/>
<path d="M860.258 89.8225H876.095" stroke="black" stroke-width="2.5" stroke-miterlimit="10"/>
<path d="M860.258 93.7837H876.095" stroke="black" stroke-width="2.5" stroke-miterlimit="10"/>
<path d="M860.258 97.7397H876.095" stroke="black" stroke-width="2.5" stroke-miterlimit="10"/>
<path d="M860.258 101.701H876.095" stroke="black" stroke-width="2.5" stroke-miterlimit="10"/>
<path d="M860.258 105.657H876.095" stroke="black" stroke-width="2.5" stroke-miterlimit="10"/>
<path d="M860.258 109.613H876.095" stroke="black" stroke-width="2.5" stroke-miterlimit="10"/>
<path d="M860.258 113.574H876.095" stroke="black" stroke-width="2.5" stroke-miterlimit="10"/>
<path d="M860.258 117.53H876.095" stroke="black" stroke-width="2.5" stroke-miterlimit="10"/>
<path d="M860.258 121.491H876.095" stroke="black" stroke-width="2.5" stroke-miterlimit="10"/>
<path d="M860.258 125.447H876.095" stroke="black" stroke-width="2.5" stroke-miterlimit="10"/>
<path d="M860.258 129.403H876.095" stroke="black" stroke-width="2.5" stroke-miterlimit="10"/>
<path d="M860.258 133.364H876.095" stroke="black" stroke-width="2.5" stroke-miterlimit="10"/>
<path d="M860.258 137.32H876.095" stroke="black" stroke-width="2.5" stroke-miterlimit="10"/>
<path d="M860.258 141.276H876.095" stroke="black" stroke-width="2.5" stroke-miterlimit="10"/>
<path d="M860.258 145.237H876.095" stroke="black" stroke-width="2.5" stroke-miterlimit="10"/>
<path d="M860.258 149.193H876.095" stroke="black" stroke-width="2.5" stroke-miterlimit="10"/>
<path d="M860.258 153.154H876.095" stroke="black" stroke-width="2.5" stroke-miterlimit="10"/>
<path d="M860.258 157.11H876.095" stroke="black" stroke-width="2.5" stroke-miterlimit="10"/>
<path d="M860.258 161.066H876.095" stroke="black" stroke-width="2.5" stroke-miterlimit="10"/>
<path d="M860.258 165.028H876.095" stroke="black" stroke-width="2.5" stroke-miterlimit="10"/>
<path d="M860.258 168.983H876.095" stroke="black" stroke-width="2.5" stroke-miterlimit="10"/>
<path d="M860.258 172.945H876.095" stroke="black" stroke-width="2.5" stroke-miterlimit="10"/>
<path d="M860.258 176.901H876.095" stroke="black" stroke-width="2.5" stroke-miterlimit="10"/>
<path d="M860.258 180.857H876.095" stroke="black" stroke-width="2.5" stroke-miterlimit="10"/>
<path d="M860.258 184.818H876.095" stroke="black" stroke-width="2.5" stroke-miterlimit="10"/>
<path d="M860.258 188.774H876.095" stroke="black" stroke-width="2.5" stroke-miterlimit="10"/>
<path d="M860.258 192.735H876.095" stroke="black" stroke-width="2.5" stroke-miterlimit="10"/>
<path d="M860.258 196.691H876.095" stroke="black" stroke-width="2.5" stroke-miterlimit="10"/>
<path d="M860.258 200.647H876.095" stroke="black" stroke-width="2.5" stroke-miterlimit="10"/>
<path d="M860.258 204.608H876.095" stroke="black" stroke-width="2.5" stroke-miterlimit="10"/>
<path d="M860.258 208.564H876.095" stroke="black" stroke-width="2.5" stroke-miterlimit="10"/>
<path d="M48.5332 18.1445V24.7583L63.3483 37.5668V39.9179" stroke="black" stroke-miterlimit="10"/>
<path d="M77.1406 18.1445V24.7583L91.9557 37.5668V39.9179" stroke="black" stroke-miterlimit="10"/>
<path d="M106.26 18.1445V24.7583L119.798 37.8223V39.9179" stroke="black" stroke-miterlimit="10"/>
<path d="M135.891 18.1445V24.7583L147.385 37.8223V39.9179" stroke="black" stroke-miterlimit="10"/>
<path d="M165.521 18.1445V24.7583L175.483 37.8223V39.9179" stroke="black" stroke-miterlimit="10"/>
<path d="M224.27 18.1445V24.7583L232.188 37.8223V40.1223" stroke="black" stroke-miterlimit="10"/>
<path d="M253.9 18.1445V24.7583L260.797 37.8223V40.6334" stroke="black" stroke-miterlimit="10"/>
<path d="M283.02 18.1445V24.7583L288.894 37.8223V40.3779" stroke="black" stroke-miterlimit="10"/>
<path d="M342.791 18.1445V24.7583L346.112 37.8223V40.3779" stroke="black" stroke-miterlimit="10"/>
<path d="M372.932 18.1445V24.7583L374.72 37.3112V40.3779" stroke="black" stroke-miterlimit="10"/>
<path d="M403.074 18.1445V24.7583L403.841 37.3112V40.3779" stroke="black" stroke-miterlimit="10"/>
<path d="M433.214 18.1445L432.959 24.5334V37.3112V40.6334" stroke="black" stroke-miterlimit="10"/>
<path d="M614.852 90.5432H603.066V122.176H614.852V90.5432Z" fill="black"/>
<path d="M554.06 122.181L549.6 107.185L543.444 122.181H520.112V101.154H512.587V122.181H500.648V90.5484H532.056V112.276L535.188 112.296L544.113 92.6236L538.126 77.4282H550.831C550.831 77.4282 562.8 111.233 566.428 122.176H554.06V122.181Z" fill="black"/>
<path d="M686.543 89.833C677.031 89.833 669.025 96.8455 669.025 106.357C669.025 115.869 677.036 122.881 686.543 122.881C696.05 122.881 703.81 115.869 703.81 106.357C703.81 96.8455 695.8 89.833 686.543 89.833ZM686.543 112.117C683.038 112.117 680.786 109.613 680.786 106.357C680.786 102.851 683.038 100.597 686.543 100.597C689.797 100.597 692.05 102.851 692.05 106.357C692.05 109.613 689.797 112.117 686.543 112.117Z" fill="black"/>
<path d="M582.504 100.515C585.733 100.515 588.215 102.999 588.466 106.48V106.73C588.466 110.211 585.733 112.945 582.504 112.945C579.025 112.945 576.292 110.211 576.292 106.73C576.292 103.004 579.025 100.515 582.504 100.515ZM581.513 89.8279C572.322 89.8279 565.119 96.7841 565.119 106.229C565.119 115.675 572.322 122.881 581.513 122.881C584.246 122.881 586.979 122.135 589.212 120.643L589.957 122.171H599.398V90.5383H589.957L589.212 92.0665C586.974 90.5741 584.246 89.8279 581.513 89.8279Z" fill="black"/>
<path d="M634.71 100.776C638.189 100.776 640.672 103.26 640.672 106.74C640.672 110.221 638.189 112.705 634.71 112.705C630.986 112.705 628.498 110.221 628.498 106.74C628.498 103.26 631.231 100.776 634.71 100.776ZM666.399 90.5432H634.71C624.774 90.5432 617.57 97.571 617.57 106.766C617.57 115.961 625.269 122.922 634.71 122.922C644.151 122.922 651.104 116.462 651.104 108.013C651.104 105.279 650.358 102.795 648.866 100.556H654.47V122.176H666.394V90.5432H666.399Z" fill="black"/>
<path d="M787.532 94.2607C787.532 114.025 771.516 130.044 751.766 130.044C732.016 130.044 716 114.02 716 94.2607C716 74.5011 732.016 58.4778 751.766 58.4778C771.516 58.4778 787.532 74.5011 787.532 94.2607Z" fill="#E84233"/>
<path d="M493.241 18.3999V23.7972L489.154 37.311V39.9177" stroke="black" stroke-miterlimit="10"/>
<path d="M522.837 18.1445V24.1808L517.764 37.8223V40.613" stroke="black" stroke-miterlimit="10"/>
<path d="M552.375 18.1445V24.2574L545.861 38.3334V40.613" stroke="black" stroke-miterlimit="10"/>
<path d="M611.129 18.1445V25.0445L602.566 37.8223V40.0763" stroke="black" stroke-miterlimit="10"/>
<path d="M640.432 18.1445V25.1059L630.664 38.3334V40.3779" stroke="black" stroke-miterlimit="10"/>
<path d="M669.582 18.1445V25.2592L658.762 38.3334V40.9248" stroke="black" stroke-miterlimit="10"/>
<path d="M698.886 18.1445V25.341L686.35 38.3334V40.9248" stroke="black" stroke-miterlimit="10"/>
<path d="M756.486 18.1445V25.5556L742.033 38.3334V40.383" stroke="black" stroke-miterlimit="10"/>
<path d="M785.248 18.1445V25.571L769.109 38.8445V40.383" stroke="black" stroke-miterlimit="10"/>
<path d="M814.091 18.1445V25.4943L797.207 38.8445V40.383" stroke="black" stroke-miterlimit="10"/>
<path d="M842.234 18.1445V25.5556L824.793 38.8445V40.383" stroke="black" stroke-miterlimit="10"/>
<path d="M870.771 17.3777V25.4175L851.869 38.3332V39.9944" stroke="black" stroke-miterlimit="10"/>
<path d="M903.212 299L0 284.689V275.489H903.212V299Z" fill="black"/>
</g>
<defs>
<clipPath id="clip0_924_2067">
<rect width="917" height="299" fill="white"/>
</clipPath>
</defs>
</svg>
